<mxfile host="app.diagrams.net" modified="2020-12-11T11:02:34.832Z" agent="5.0 (Windows NT 10.0; Win64; x64) AppleWebKit/537.36 (KHTML, like Gecko) Chrome/87.0.4280.88 Safari/537.36" etag="cGegpj-QLx4dVT2JqzNi" version="13.9.3" type="github">
  <diagram id="fGnJBwWOeE1liqLc3zjZ" name="Page-1">
    <mxGraphModel dx="965" dy="567" grid="1" gridSize="10" guides="1" tooltips="1" connect="1" arrows="1" fold="1" page="1" pageScale="1" pageWidth="827" pageHeight="1169" math="0" shadow="0">
      <root>
        <mxCell id="0" />
        <mxCell id="1" parent="0" />
        <mxCell id="95HC2CYI5oiidkYTNmPj-4" style="edgeStyle=orthogonalEdgeStyle;rounded=0;orthogonalLoop=1;jettySize=auto;html=1;exitX=0.5;exitY=1;exitDx=0;exitDy=0;entryX=0;entryY=0.5;entryDx=0;entryDy=0;" parent="1" source="95HC2CYI5oiidkYTNmPj-1" target="95HC2CYI5oiidkYTNmPj-3" edge="1">
          <mxGeometry relative="1" as="geometry" />
        </mxCell>
        <mxCell id="95HC2CYI5oiidkYTNmPj-1" value="商品类目性别" style="ellipse;whiteSpace=wrap;html=1;" parent="1" vertex="1">
          <mxGeometry x="239" y="67.5" width="100" height="50" as="geometry" />
        </mxCell>
        <mxCell id="95HC2CYI5oiidkYTNmPj-5" style="edgeStyle=orthogonalEdgeStyle;rounded=0;orthogonalLoop=1;jettySize=auto;html=1;exitX=0.5;exitY=1;exitDx=0;exitDy=0;entryX=1;entryY=0.5;entryDx=0;entryDy=0;" parent="1" source="95HC2CYI5oiidkYTNmPj-2" target="95HC2CYI5oiidkYTNmPj-3" edge="1">
          <mxGeometry relative="1" as="geometry" />
        </mxCell>
        <mxCell id="95HC2CYI5oiidkYTNmPj-2" value="用户基础性别&lt;br&gt;用户行为性别" style="ellipse;whiteSpace=wrap;html=1;" parent="1" vertex="1">
          <mxGeometry x="479" y="157.5" width="100" height="50" as="geometry" />
        </mxCell>
        <mxCell id="95HC2CYI5oiidkYTNmPj-3" value="商品类目性别&lt;br&gt;是否等于&lt;br&gt;用户基础性别" style="rounded=1;whiteSpace=wrap;html=1;" parent="1" vertex="1">
          <mxGeometry x="349" y="247.5" width="120" height="50" as="geometry" />
        </mxCell>
        <mxCell id="95HC2CYI5oiidkYTNmPj-7" value="" style="endArrow=classic;html=1;exitX=0.5;exitY=1;exitDx=0;exitDy=0;" parent="1" source="95HC2CYI5oiidkYTNmPj-3" edge="1">
          <mxGeometry width="50" height="50" relative="1" as="geometry">
            <mxPoint x="439" y="347.5" as="sourcePoint" />
            <mxPoint x="289" y="327.5" as="targetPoint" />
          </mxGeometry>
        </mxCell>
        <mxCell id="95HC2CYI5oiidkYTNmPj-8" value="" style="endArrow=classic;html=1;exitX=0.5;exitY=1;exitDx=0;exitDy=0;" parent="1" source="95HC2CYI5oiidkYTNmPj-3" edge="1">
          <mxGeometry width="50" height="50" relative="1" as="geometry">
            <mxPoint x="419" y="307.5" as="sourcePoint" />
            <mxPoint x="529" y="327.5" as="targetPoint" />
          </mxGeometry>
        </mxCell>
        <mxCell id="95HC2CYI5oiidkYTNmPj-10" value="是" style="text;html=1;strokeColor=none;fillColor=none;align=center;verticalAlign=middle;whiteSpace=wrap;rounded=0;fontColor=#0000CC;fontStyle=1" parent="1" vertex="1">
          <mxGeometry x="309" y="297.5" width="40" height="20" as="geometry" />
        </mxCell>
        <mxCell id="95HC2CYI5oiidkYTNmPj-11" value="否" style="text;html=1;strokeColor=none;fillColor=none;align=center;verticalAlign=middle;whiteSpace=wrap;rounded=0;fontStyle=1;fontColor=#CC0000;" parent="1" vertex="1">
          <mxGeometry x="469" y="297.5" width="40" height="20" as="geometry" />
        </mxCell>
        <mxCell id="95HC2CYI5oiidkYTNmPj-12" value="商品类目性别&lt;br&gt;是否等于&lt;br&gt;用户行为性别" style="rounded=1;whiteSpace=wrap;html=1;" parent="1" vertex="1">
          <mxGeometry x="469" y="327.5" width="120" height="50" as="geometry" />
        </mxCell>
        <mxCell id="95HC2CYI5oiidkYTNmPj-13" value="无需过滤" style="ellipse;whiteSpace=wrap;html=1;fontStyle=1;fillColor=#d5e8d4;strokeColor=#82b366;" parent="1" vertex="1">
          <mxGeometry x="254" y="327.5" width="70" height="40" as="geometry" />
        </mxCell>
        <mxCell id="95HC2CYI5oiidkYTNmPj-19" style="edgeStyle=orthogonalEdgeStyle;rounded=0;orthogonalLoop=1;jettySize=auto;html=1;exitX=0;exitY=0.5;exitDx=0;exitDy=0;fontColor=#000000;" parent="1" source="95HC2CYI5oiidkYTNmPj-14" target="95HC2CYI5oiidkYTNmPj-17" edge="1">
          <mxGeometry relative="1" as="geometry" />
        </mxCell>
        <mxCell id="95HC2CYI5oiidkYTNmPj-14" value="商品类目性别&lt;br&gt;是否为空" style="rounded=1;whiteSpace=wrap;html=1;" parent="1" vertex="1">
          <mxGeometry x="239" y="167.5" width="100" height="40" as="geometry" />
        </mxCell>
        <mxCell id="95HC2CYI5oiidkYTNmPj-15" value="否" style="text;html=1;strokeColor=none;fillColor=none;align=center;verticalAlign=middle;whiteSpace=wrap;rounded=0;fontStyle=1;fontColor=#CC0000;" parent="1" vertex="1">
          <mxGeometry x="284" y="227.5" width="40" height="20" as="geometry" />
        </mxCell>
        <mxCell id="95HC2CYI5oiidkYTNmPj-17" value="无需过滤" style="ellipse;whiteSpace=wrap;html=1;fontStyle=1;fillColor=#d5e8d4;strokeColor=#82b366;" parent="1" vertex="1">
          <mxGeometry x="129" y="167.5" width="70" height="40" as="geometry" />
        </mxCell>
        <mxCell id="95HC2CYI5oiidkYTNmPj-21" value="是" style="text;html=1;strokeColor=none;fillColor=none;align=center;verticalAlign=middle;whiteSpace=wrap;rounded=0;fontColor=#0000CC;fontStyle=1" parent="1" vertex="1">
          <mxGeometry x="199" y="167.5" width="40" height="20" as="geometry" />
        </mxCell>
        <mxCell id="95HC2CYI5oiidkYTNmPj-30" style="edgeStyle=orthogonalEdgeStyle;rounded=0;orthogonalLoop=1;jettySize=auto;html=1;exitX=1;exitY=0.5;exitDx=0;exitDy=0;exitPerimeter=0;fontColor=#000000;" parent="1" source="95HC2CYI5oiidkYTNmPj-22" target="95HC2CYI5oiidkYTNmPj-1" edge="1">
          <mxGeometry relative="1" as="geometry" />
        </mxCell>
        <mxCell id="95HC2CYI5oiidkYTNmPj-22" value="规则标注" style="shape=cylinder3;whiteSpace=wrap;html=1;boundedLbl=1;backgroundOutline=1;size=15;fontColor=#333333;fillColor=#f5f5f5;strokeColor=#666666;" parent="1" vertex="1">
          <mxGeometry x="129" y="60" width="70" height="65" as="geometry" />
        </mxCell>
        <mxCell id="95HC2CYI5oiidkYTNmPj-31" style="edgeStyle=orthogonalEdgeStyle;rounded=0;orthogonalLoop=1;jettySize=auto;html=1;exitX=0;exitY=0.5;exitDx=0;exitDy=0;exitPerimeter=0;entryX=1;entryY=0.5;entryDx=0;entryDy=0;fontColor=#000000;" parent="1" source="95HC2CYI5oiidkYTNmPj-23" target="95HC2CYI5oiidkYTNmPj-2" edge="1">
          <mxGeometry relative="1" as="geometry" />
        </mxCell>
        <mxCell id="95HC2CYI5oiidkYTNmPj-23" value="欧拉特征&lt;br&gt;统计标注" style="shape=cylinder3;whiteSpace=wrap;html=1;boundedLbl=1;backgroundOutline=1;size=15;fontColor=#333333;fillColor=#f5f5f5;strokeColor=#666666;" parent="1" vertex="1">
          <mxGeometry x="629" y="150" width="70" height="65" as="geometry" />
        </mxCell>
        <mxCell id="95HC2CYI5oiidkYTNmPj-24" value="" style="endArrow=classic;html=1;" parent="1" edge="1">
          <mxGeometry width="50" height="50" relative="1" as="geometry">
            <mxPoint x="524" y="377.5" as="sourcePoint" />
            <mxPoint x="404" y="407.5" as="targetPoint" />
          </mxGeometry>
        </mxCell>
        <mxCell id="95HC2CYI5oiidkYTNmPj-25" value="是" style="text;html=1;strokeColor=none;fillColor=none;align=center;verticalAlign=middle;whiteSpace=wrap;rounded=0;fontColor=#0000CC;fontStyle=1" parent="1" vertex="1">
          <mxGeometry x="424" y="377.5" width="40" height="20" as="geometry" />
        </mxCell>
        <mxCell id="95HC2CYI5oiidkYTNmPj-26" value="无需过滤" style="ellipse;whiteSpace=wrap;html=1;fontStyle=1;fillColor=#d5e8d4;strokeColor=#82b366;" parent="1" vertex="1">
          <mxGeometry x="369" y="407.5" width="70" height="40" as="geometry" />
        </mxCell>
        <mxCell id="95HC2CYI5oiidkYTNmPj-27" value="" style="endArrow=classic;html=1;exitX=0.5;exitY=1;exitDx=0;exitDy=0;" parent="1" edge="1">
          <mxGeometry width="50" height="50" relative="1" as="geometry">
            <mxPoint x="529" y="377.5" as="sourcePoint" />
            <mxPoint x="649" y="407.5" as="targetPoint" />
          </mxGeometry>
        </mxCell>
        <mxCell id="95HC2CYI5oiidkYTNmPj-28" value="否" style="text;html=1;strokeColor=none;fillColor=none;align=center;verticalAlign=middle;whiteSpace=wrap;rounded=0;fontStyle=1;fontColor=#CC0000;" parent="1" vertex="1">
          <mxGeometry x="589" y="377.5" width="40" height="20" as="geometry" />
        </mxCell>
        <mxCell id="95HC2CYI5oiidkYTNmPj-29" value="过滤" style="ellipse;whiteSpace=wrap;html=1;fontStyle=1;fillColor=#f8cecc;strokeColor=#b85450;" parent="1" vertex="1">
          <mxGeometry x="609" y="407.5" width="70" height="40" as="geometry" />
        </mxCell>
        <mxCell id="rkpEittb46IJz6kNiKrZ-3" style="edgeStyle=orthogonalEdgeStyle;rounded=0;orthogonalLoop=1;jettySize=auto;html=1;exitX=1;exitY=0.5;exitDx=0;exitDy=0;" edge="1" parent="1" source="rkpEittb46IJz6kNiKrZ-1" target="rkpEittb46IJz6kNiKrZ-2">
          <mxGeometry relative="1" as="geometry" />
        </mxCell>
        <mxCell id="rkpEittb46IJz6kNiKrZ-1" value="对某个叶子类目下无点击or无购买行为" style="rounded=1;whiteSpace=wrap;html=1;" vertex="1" parent="1">
          <mxGeometry x="40" y="630" width="120" height="60" as="geometry" />
        </mxCell>
        <mxCell id="rkpEittb46IJz6kNiKrZ-5" style="edgeStyle=orthogonalEdgeStyle;rounded=0;orthogonalLoop=1;jettySize=auto;html=1;exitX=1;exitY=0.5;exitDx=0;exitDy=0;" edge="1" parent="1" source="rkpEittb46IJz6kNiKrZ-2" target="rkpEittb46IJz6kNiKrZ-4">
          <mxGeometry relative="1" as="geometry" />
        </mxCell>
        <mxCell id="rkpEittb46IJz6kNiKrZ-2" value="理论上不会有个性化的召回链路召回该叶子类目下的商品" style="rounded=1;whiteSpace=wrap;html=1;" vertex="1" parent="1">
          <mxGeometry x="219" y="630" width="120" height="60" as="geometry" />
        </mxCell>
        <mxCell id="rkpEittb46IJz6kNiKrZ-12" style="edgeStyle=orthogonalEdgeStyle;rounded=0;orthogonalLoop=1;jettySize=auto;html=1;exitX=1;exitY=0.5;exitDx=0;exitDy=0;entryX=0;entryY=0.5;entryDx=0;entryDy=0;" edge="1" parent="1" source="rkpEittb46IJz6kNiKrZ-4" target="rkpEittb46IJz6kNiKrZ-11">
          <mxGeometry relative="1" as="geometry" />
        </mxCell>
        <mxCell id="rkpEittb46IJz6kNiKrZ-4" value="小概率会召回该叶子类目下的商品" style="rounded=1;whiteSpace=wrap;html=1;" vertex="1" parent="1">
          <mxGeometry x="400" y="630" width="120" height="60" as="geometry" />
        </mxCell>
        <mxCell id="rkpEittb46IJz6kNiKrZ-8" style="edgeStyle=orthogonalEdgeStyle;rounded=0;orthogonalLoop=1;jettySize=auto;html=1;exitX=0.5;exitY=0;exitDx=0;exitDy=0;" edge="1" parent="1" source="rkpEittb46IJz6kNiKrZ-6">
          <mxGeometry relative="1" as="geometry">
            <mxPoint x="364" y="660" as="targetPoint" />
          </mxGeometry>
        </mxCell>
        <mxCell id="rkpEittb46IJz6kNiKrZ-6" value="其他类型召回&lt;br&gt;如热门召回" style="ellipse;whiteSpace=wrap;html=1;fillColor=#ffe6cc;strokeColor=#d79b00;" vertex="1" parent="1">
          <mxGeometry x="313" y="740" width="101" height="50" as="geometry" />
        </mxCell>
        <mxCell id="rkpEittb46IJz6kNiKrZ-9" value="例如，对一个男性用户，热门召回了一款女鞋，那么会被过滤" style="rounded=1;whiteSpace=wrap;html=1;fillColor=#d5e8d4;strokeColor=#82b366;" vertex="1" parent="1">
          <mxGeometry x="520" y="730" width="120" height="60" as="geometry" />
        </mxCell>
        <mxCell id="rkpEittb46IJz6kNiKrZ-11" value="敏感spu召回过滤层" style="ellipse;whiteSpace=wrap;html=1;aspect=fixed;fillColor=#dae8fc;strokeColor=#6c8ebf;" vertex="1" parent="1">
          <mxGeometry x="570" y="625" width="70" height="70" as="geometry" />
        </mxCell>
        <mxCell id="rkpEittb46IJz6kNiKrZ-14" value="" style="endArrow=classic;html=1;exitX=0.5;exitY=1;exitDx=0;exitDy=0;entryX=1;entryY=0.5;entryDx=0;entryDy=0;" edge="1" parent="1" source="rkpEittb46IJz6kNiKrZ-11" target="rkpEittb46IJz6kNiKrZ-6">
          <mxGeometry width="50" height="50" relative="1" as="geometry">
            <mxPoint x="710" y="625" as="sourcePoint" />
            <mxPoint x="760" y="575" as="targetPoint" />
          </mxGeometry>
        </mxCell>
      </root>
    </mxGraphModel>
  </diagram>
</mxfile>
